<svg width="27" height="26" viewBox="0 0 27 26" fill="none" xmlns="http://www.w3.org/2000/svg">
<path d="M3.75 4.98333C3.75 4.37661 3.75 4.07325 3.86807 3.84151C3.97194 3.63767 4.13767 3.47194 4.34151 3.36807C4.57325 3.25 4.87661 3.25 5.48333 3.25H15.0167C15.6234 3.25 15.9268 3.25 16.1585 3.36807C16.3624 3.47194 16.528 3.63767 16.6319 3.84151C16.75 4.07325 16.75 4.37661 16.75 4.98333V5.85C16.75 6.45672 16.75 6.76009 16.6319 6.99182C16.528 7.19566 16.3624 7.36139 16.1585 7.46526C15.9268 7.58333 15.6234 7.58333 15.0167 7.58333H5.48333C4.87661 7.58333 4.57325 7.58333 4.34151 7.46526C4.13767 7.36139 3.97194 7.19566 3.86807 6.99182C3.75 6.76009 3.75 6.45672 3.75 5.85V4.98333Z" stroke="#1C1C1C" stroke-width="2" stroke-linecap="round" stroke-linejoin="round"/>
<path d="M3.75 12.5668C3.75 11.9601 3.75 11.6567 3.86807 11.425C3.97194 11.2211 4.13767 11.0555 4.34151 10.9516C4.57325 10.8335 4.87661 10.8335 5.48333 10.8335H21.5167C22.1234 10.8335 22.4268 10.8335 22.6585 10.9516C22.8624 11.0555 23.028 11.2211 23.1319 11.425C23.25 11.6567 23.25 11.9601 23.25 12.5668V13.4335C23.25 14.0403 23.25 14.3436 23.1319 14.5753C23.028 14.7792 22.8624 14.9449 22.6585 15.0487C22.4268 15.1668 22.1234 15.1668 21.5167 15.1668H5.48333C4.87661 15.1668 4.57325 15.1668 4.34151 15.0487C4.13767 14.9449 3.97194 14.7792 3.86807 14.5753C3.75 14.3436 3.75 14.0403 3.75 13.4335V12.5668Z" stroke="#1C1C1C" stroke-width="2" stroke-linecap="round" stroke-linejoin="round"/>
<path d="M3.75 20.1498C3.75 19.5431 3.75 19.2397 3.86807 19.008C3.97194 18.8041 4.13767 18.6385 4.34151 18.5346C4.57325 18.4165 4.87661 18.4165 5.48333 18.4165H10.6833C11.2901 18.4165 11.5934 18.4165 11.8252 18.5346C12.029 18.6385 12.1947 18.8041 12.2986 19.008C12.4167 19.2397 12.4167 19.5431 12.4167 20.1498V21.0165C12.4167 21.6233 12.4167 21.9266 12.2986 22.1583C12.1947 22.3622 12.029 22.5279 11.8252 22.6318C11.5934 22.7498 11.2901 22.7498 10.6833 22.7498H5.48333C4.87661 22.7498 4.57325 22.7498 4.34151 22.6318C4.13767 22.5279 3.97194 22.3622 3.86807 22.1583C3.75 21.9266 3.75 21.6233 3.75 21.0165V20.1498Z" stroke="#1C1C1C" stroke-width="2" stroke-linecap="round" stroke-linejoin="round"/>
</svg>
