<svg width="30" height="30" viewBox="0 0 30 30" fill="none" xmlns="http://www.w3.org/2000/svg">
<path d="M23.75 25C23.4185 25 23.1005 24.8683 22.8661 24.6339C22.6317 24.3995 22.5 24.0815 22.5 23.75V22.5H21.25C20.9185 22.5 20.6005 22.3683 20.3661 22.1339C20.1317 21.8995 20 21.5815 20 21.25C20 20.9185 20.1317 20.6005 20.3661 20.3661C20.6005 20.1317 20.9185 20 21.25 20H22.5V18.75C22.5 18.4185 22.6317 18.1005 22.8661 17.8661C23.1005 17.6317 23.4185 17.5 23.75 17.5C24.0815 17.5 24.3995 17.6317 24.6339 17.8661C24.8683 18.1005 25 18.4185 25 18.75V20H26.25C26.5815 20 26.8995 20.1317 27.1339 20.3661C27.3683 20.6005 27.5 20.9185 27.5 21.25C27.5 21.5815 27.3683 21.8995 27.1339 22.1339C26.8995 22.3683 26.5815 22.5 26.25 22.5H25V23.75C25 24.0815 24.8683 24.3995 24.6339 24.6339C24.3995 24.8683 24.0815 25 23.75 25Z" fill="#1C1C1C"/>
<path d="M18.75 21.2497C18.7546 20.2279 19.0722 19.2321 19.66 18.3962C20.2478 17.5604 21.0775 16.9247 22.0375 16.5747C21.1862 15.9097 20.2012 15.4364 19.15 15.1872C20.1713 14.1277 20.8583 12.7911 21.1254 11.3439C21.3926 9.89677 21.2281 8.403 20.6524 7.04866C20.0768 5.69431 19.1154 4.53924 17.8881 3.72729C16.6607 2.91535 15.2216 2.48242 13.75 2.48242C12.2784 2.48242 10.8393 2.91535 9.61198 3.72729C8.38464 4.53924 7.42328 5.69431 6.84763 7.04866C6.27198 8.403 6.10749 9.89677 6.37464 11.3439C6.64178 12.7911 7.32876 14.1277 8.35002 15.1872C6.68996 15.5616 5.20658 16.4894 4.1435 17.8183C3.08043 19.1471 2.50087 20.798 2.50002 22.4997V23.7497C2.49907 23.9142 2.5306 24.0773 2.59281 24.2296C2.65501 24.3819 2.74667 24.5204 2.86252 24.6372C3.16252 24.9247 5.96252 27.4997 13.75 27.4997C16.6874 27.6021 19.6146 27.1001 22.35 26.0247C21.3155 25.723 20.4062 25.0952 19.7575 24.2347C19.1088 23.3743 18.7554 22.3273 18.75 21.2497Z" fill="#1C1C1C"/>
</svg>
