<svg width="23" height="22" viewBox="0 0 23 22" fill="none" xmlns="http://www.w3.org/2000/svg">
<path fill-rule="evenodd" clip-rule="evenodd" d="M1.22897 6.47459C0.666504 7.50218 0.666504 8.74174 0.666504 11.2208V12.8687C0.666504 17.0946 0.666504 19.2076 1.9357 20.5204C3.20492 21.8333 5.24766 21.8333 9.33317 21.8333H13.6665C17.752 21.8333 19.7948 21.8333 21.0639 20.5204C22.3332 19.2076 22.3332 17.0946 22.3332 12.8687V11.2208C22.3332 8.74174 22.3332 7.50218 21.7707 6.47459C21.2082 5.44702 20.1807 4.80926 18.1255 3.53376L15.9588 2.18907C13.7863 0.840773 12.7001 0.166626 11.4998 0.166626C10.2996 0.166626 9.21334 0.840773 7.04087 2.18907L4.8742 3.53377C2.81903 4.80926 1.79144 5.44702 1.22897 6.47459ZM8.24984 16.6875C7.80111 16.6875 7.43734 17.0512 7.43734 17.5C7.43734 17.9487 7.80111 18.3125 8.24984 18.3125H14.7498C15.1986 18.3125 15.5623 17.9487 15.5623 17.5C15.5623 17.0512 15.1986 16.6875 14.7498 16.6875H8.24984Z" fill="#1C1C1C"/>
</svg>
