<svg width="23" height="22" viewBox="0 0 23 22" fill="none" xmlns="http://www.w3.org/2000/svg">
<path fill-rule="evenodd" clip-rule="evenodd" d="M1.22946 6.47459C0.666992 7.50218 0.666992 8.74174 0.666992 11.2208V12.8687C0.666992 17.0946 0.666992 19.2076 1.93619 20.5204C3.2054 21.8333 5.24815 21.8333 9.33366 21.8333H13.667C17.7525 21.8333 19.7953 21.8333 21.0644 20.5204C22.3337 19.2076 22.3337 17.0946 22.3337 12.8687V11.2208C22.3337 8.74174 22.3337 7.50218 21.7712 6.47459C21.2087 5.44702 20.1812 4.80926 18.126 3.53376L15.9593 2.18907C13.7868 0.840773 12.7005 0.166626 11.5003 0.166626C10.3001 0.166626 9.21383 0.840773 7.04136 2.18907L4.87469 3.53377C2.81952 4.80926 1.79193 5.44702 1.22946 6.47459ZM8.25032 16.6875C7.8016 16.6875 7.43782 17.0512 7.43782 17.5C7.43782 17.9487 7.8016 18.3125 8.25032 18.3125H14.7503C15.199 18.3125 15.5628 17.9487 15.5628 17.5C15.5628 17.0512 15.199 16.6875 14.7503 16.6875H8.25032Z" fill="#BCBCBC"/>
</svg>
