<svg width="20" height="23" viewBox="0 0 20 23" fill="none" xmlns="http://www.w3.org/2000/svg">
<path d="M3.59811 10.6625L4.70616 11.1635C4.78595 11.0071 4.82738 10.8359 4.82738 10.6625H3.59811ZM1.97927 13.8336L0.871219 13.3326C0.773926 13.5233 0.733999 13.7354 0.755798 13.9459L1.97927 13.8336ZM4.31243 16.7163L4.83692 15.6701C4.80409 15.6555 4.77061 15.6424 4.73655 15.6306L4.31243 16.7163ZM10.0751 17.9502L10.068 19.107H10.082L10.0751 17.9502ZM15.8376 16.7163L15.3303 15.6626L15.3131 15.6701L15.8376 16.7163ZM17.5523 15.4608L18.511 16.185C18.5592 16.1285 18.6017 16.0679 18.6377 16.0039L17.5523 15.4608ZM17.3606 12.2481L16.2357 12.7145C16.2667 12.7806 16.3042 12.844 16.3477 12.9036L17.3606 12.2481ZM16.4353 8.90264L17.659 8.79313C17.6577 8.78064 17.6563 8.76814 17.6546 8.75565L16.4353 8.90264ZM10.0751 21.7599L10.058 22.9165C10.0693 22.9167 10.0807 22.9167 10.092 22.9165L10.0751 21.7599ZM10.0734 1.55014C7.43264 1.55014 5.43618 2.62756 4.14713 4.37953C2.8975 6.07793 2.36883 8.32533 2.36883 10.6625H4.82738C4.82738 8.60851 5.29909 6.87812 6.16847 5.69652C6.99844 4.56849 8.2397 3.8637 10.0734 3.8637V1.55014ZM2.49006 10.1615L0.871219 13.3326L3.08732 14.3346L4.70616 11.1635L2.49006 10.1615ZM0.755798 13.9459C0.936469 15.6902 2.14391 17.1986 3.88831 17.802L4.73655 15.6306C3.90313 15.3422 3.29448 14.607 3.20274 13.7213L0.755798 13.9459ZM3.78796 17.7625C5.75702 18.6367 7.89829 19.0954 10.068 19.107L10.082 16.7934C8.27182 16.7839 6.48371 16.4012 4.83692 15.6701L3.78796 17.7625ZM10.082 19.107C12.2519 19.0954 14.3929 18.6367 16.3621 17.7625L15.3131 15.6701C13.6664 16.4012 11.8782 16.7839 10.068 16.7934L10.082 19.107ZM16.3449 17.7701C17.188 17.4105 17.9293 16.8668 18.511 16.185L16.5937 14.7367C16.251 15.1386 15.8178 15.4548 15.3303 15.6626L16.3449 17.7701ZM18.6377 16.0039C19.4279 14.6054 19.3271 12.8974 18.3733 11.5925L16.3477 12.9036C16.78 13.4951 16.8279 14.2787 16.467 14.9177L18.6377 16.0039ZM18.4854 11.7816C18.0429 10.8365 17.7636 9.82683 17.659 8.79313L15.2115 9.01215C15.3408 10.2914 15.6866 11.542 16.2357 12.7145L18.4854 11.7816ZM17.6546 8.75565C17.3929 6.83229 16.6997 5.03742 15.4367 3.70502C14.1441 2.34139 12.3345 1.55014 10.0734 1.55014V3.8637C11.6684 3.8637 12.7985 4.39735 13.6021 5.2451C14.4352 6.12408 14.9951 7.42706 15.2159 9.04963L17.6546 8.75565ZM11.3027 2.70692V0.166626H8.84417V2.70692H11.3027ZM5.30477 21.4275C6.69398 22.3739 8.35099 22.8943 10.058 22.9165L10.092 20.6033C8.8958 20.5877 7.7293 20.2231 6.74634 19.5535L5.30477 21.4275ZM10.092 22.9165C11.799 22.8943 13.4561 22.3739 14.8453 21.4275L13.4036 19.5535C12.4207 20.2231 11.2544 20.5877 10.058 20.6033L10.092 22.9165Z" fill="#BCBCBC"/>
</svg>
