<svg width="27" height="26" viewBox="0 0 27 26" fill="none" xmlns="http://www.w3.org/2000/svg">
<path fill-rule="evenodd" clip-rule="evenodd" d="M9.5 12C11.433 12 13 10.433 13 8.5C13 6.567 11.433 5 9.5 5C7.567 5 6 6.567 6 8.5C6 10.433 7.567 12 9.5 12Z" stroke="#1C1C1C" stroke-width="2" stroke-linecap="round"/>
<path d="M2 23C2 18.5817 5.35786 15 9.5 15C13.6421 15 17 18.5817 17 23" stroke="#1C1C1C" stroke-width="2" stroke-linecap="round"/>
<path d="M17 12C19.2091 12 21 10.433 21 8.5C21 6.567 19.2091 5 17 5" stroke="#1C1C1C" stroke-width="2" stroke-linecap="round"/>
<path d="M19 15C22.4174 15.7199 25 19.0279 25 23" stroke="#1C1C1C" stroke-width="2" stroke-linecap="round"/>
</svg>
