<svg width="27" height="26" viewBox="0 0 27 26" fill="none" xmlns="http://www.w3.org/2000/svg">
<path fill-rule="evenodd" clip-rule="evenodd" d="M14.0417 2.16663C15.0589 2.16663 15.5675 2.16663 15.9687 2.33155C16.5036 2.55146 16.9286 2.97325 17.1502 3.50414C17.2514 3.74648 17.2909 4.02831 17.3064 4.43939C17.3293 5.04359 17.6415 5.60286 18.1691 5.90516C18.6966 6.20748 19.3408 6.19618 19.8794 5.91366C20.2458 5.72143 20.5115 5.61454 20.7736 5.58031C21.3477 5.5053 21.9282 5.65968 22.3876 6.0095C22.7321 6.27178 22.9863 6.70875 23.4946 7.58252L23.495 7.58329C24.0037 8.45757 24.2579 8.89472 24.3147 9.32201C24.3902 9.89173 24.2346 10.4679 23.8822 10.9237C23.7212 11.132 23.4952 11.3068 23.144 11.5258C22.6283 11.8474 22.2963 12.3952 22.2963 12.9998C22.2963 13.6045 22.6283 14.1525 23.144 14.4742C23.495 14.693 23.7211 14.8679 23.8821 15.0761C24.2345 15.5319 24.3901 16.1081 24.3146 16.6779C24.2578 17.1051 24.0036 17.5423 23.4949 18.4165L23.4948 18.4168C22.9863 19.291 22.732 19.728 22.3874 19.9904C21.9281 20.3402 21.3476 20.4946 20.7735 20.4195C20.5114 20.3853 20.2458 20.2784 19.8793 20.0863C19.3407 19.8037 18.6965 19.7923 18.1689 20.0947C17.6414 20.3971 17.3293 20.9563 17.3065 21.5605C17.291 21.9716 17.2514 22.2535 17.1502 22.4958C16.9286 23.0266 16.5036 23.4485 15.9687 23.6684C15.5675 23.8333 15.0589 23.8333 14.0417 23.8333C13.0244 23.8333 12.5158 23.8333 12.1146 23.6684C11.5797 23.4485 11.1547 23.0266 10.9331 22.4958C10.832 22.2535 10.7924 21.9716 10.7769 21.5606C10.7541 20.9563 10.4419 20.3971 9.91429 20.0947C9.38669 19.7925 8.74256 19.8037 8.20394 20.0863C7.83747 20.2784 7.57176 20.3854 7.30971 20.4196C6.73565 20.4946 6.15508 20.3402 5.69573 19.9904C5.35131 19.7282 5.09705 19.2911 4.58874 18.4174L4.58828 18.4166C4.07968 17.5424 3.82537 17.1051 3.76869 16.6779C3.69311 16.1081 3.84867 15.532 4.20115 15.0762C4.36205 14.8681 4.58819 14.6931 4.93917 14.4742C5.45501 14.1525 5.78695 13.6046 5.78698 13C5.78701 12.3953 5.45507 11.8473 4.93917 11.5255C4.58825 11.3067 4.36215 11.1319 4.20126 10.9237C3.84878 10.4678 3.69321 9.89166 3.76879 9.32194C3.82547 8.89465 4.07977 8.45751 4.58838 7.58323L4.58839 7.58321C5.097 6.70893 5.35132 6.27179 5.69584 6.00942C6.15519 5.65961 6.73576 5.50522 7.30982 5.58023C7.57188 5.61446 7.83761 5.72137 8.20411 5.91361C8.74269 6.19613 9.38677 6.20741 9.91435 5.90513C10.4419 5.60284 10.7541 5.04361 10.7769 4.43945C10.7924 4.02833 10.832 3.74649 10.9331 3.50414C11.1547 2.97325 11.5797 2.55146 12.1146 2.33155C12.5158 2.16663 13.0244 2.16663 14.0417 2.16663ZM14.0416 16.25C15.8502 16.25 17.3163 14.7949 17.3163 13C17.3163 11.205 15.8502 9.74997 14.0416 9.74997C12.233 9.74997 10.7669 11.205 10.7669 13C10.7669 14.7949 12.233 16.25 14.0416 16.25Z" fill="#BCBCBC"/>
</svg>
