<svg width="22" height="22" viewBox="0 0 22 22" fill="none" xmlns="http://www.w3.org/2000/svg">
<path fill-rule="evenodd" clip-rule="evenodd" d="M11.0417 0.166748C12.0589 0.166748 12.5675 0.166748 12.9687 0.331675C13.5036 0.55158 13.9286 0.973376 14.1502 1.50426C14.2514 1.74661 14.2909 2.02843 14.3064 2.43952C14.3293 3.04371 14.6415 3.60298 15.1691 3.90529C15.6966 4.2076 16.3408 4.1963 16.8794 3.91378C17.2458 3.72155 17.5115 3.61466 17.7736 3.58043C18.3477 3.50542 18.9282 3.6598 19.3876 4.00962C19.7321 4.27191 19.9863 4.70887 20.4946 5.58264L20.495 5.58341C21.0037 6.45769 21.2579 6.89484 21.3147 7.32213C21.3902 7.89185 21.2346 8.46804 20.8822 8.92387C20.7212 9.13209 20.4952 9.30694 20.144 9.52588C19.6283 9.84752 19.2963 10.3954 19.2963 11C19.2963 11.6046 19.6283 12.1526 20.144 12.4743C20.495 12.6931 20.7211 12.8681 20.8821 13.0762C21.2345 13.532 21.3901 14.1083 21.3146 14.678C21.2578 15.1053 21.0036 15.5424 20.4949 16.4166L20.4948 16.4169C19.9863 17.2911 19.732 17.7281 19.3874 17.9905C18.9281 18.3403 18.3476 18.4947 17.7735 18.4196C17.5114 18.3854 17.2458 18.2786 16.8793 18.0864C16.3407 17.8038 15.6965 17.7925 15.1689 18.0948C14.6414 18.3972 14.3293 18.9564 14.3065 19.5606C14.291 19.9717 14.2514 20.2536 14.1502 20.4959C13.9286 21.0268 13.5036 21.4486 12.9687 21.6685C12.5675 21.8334 12.0589 21.8334 11.0417 21.8334C10.0244 21.8334 9.51579 21.8334 9.11463 21.6685C8.57968 21.4486 8.15468 21.0268 7.9331 20.4959C7.83195 20.2536 7.79237 19.9717 7.77687 19.5607C7.7541 18.9564 7.4419 18.3972 6.91429 18.0948C6.38669 17.7926 5.74256 17.8038 5.20394 18.0864C4.83747 18.2786 4.57176 18.3855 4.30971 18.4197C3.73565 18.4947 3.15508 18.3403 2.69573 17.9905C2.35131 17.7283 2.09705 17.2913 1.58874 16.4175L1.58828 16.4167C1.07968 15.5425 0.825365 15.1053 0.768685 14.678C0.693112 14.1083 0.848668 13.5322 1.20115 13.0763C1.36205 12.8682 1.58819 12.6932 1.93917 12.4743C2.45501 12.1526 2.78695 11.6047 2.78698 11.0001C2.78701 10.3955 2.45507 9.84741 1.93917 9.52566C1.58825 9.30683 1.36215 9.13198 1.20126 8.92387C0.848776 8.46796 0.693209 7.89178 0.768793 7.32206C0.825473 6.89477 1.07977 6.45763 1.58838 5.58335L1.58839 5.58334C2.097 4.70905 2.35132 4.27191 2.69584 4.00955C3.15519 3.65973 3.73576 3.50534 4.30982 3.58035C4.57188 3.61458 4.83761 3.72149 5.20411 3.91374C5.74269 4.19625 6.38677 4.20754 6.91435 3.90525C7.44192 3.60296 7.75411 3.04373 7.77687 2.43957C7.79237 2.02846 7.83195 1.74662 7.9331 1.50426C8.15468 0.973376 8.57968 0.55158 9.11463 0.331675C9.51579 0.166748 10.0244 0.166748 11.0417 0.166748ZM11.0416 14.2501C12.8502 14.2501 14.3163 12.7951 14.3163 11.0001C14.3163 9.20512 12.8502 7.75009 11.0416 7.75009C9.23299 7.75009 7.76686 9.20512 7.76686 11.0001C7.76686 12.7951 9.23299 14.2501 11.0416 14.2501Z" fill="#1C1C1C"/>
</svg>
